<svg id="svg" xmlns="http://www.w3.org/2000/svg" xmlns:xlink="http://www.w3.org/1999/xlink" width="400" height="111.40583554376657" viewBox="0, 0, 400,111.40583554376657"><g id="svgg"><path id="path0" d="M171.083 24.759 C 168.883 24.873,165.958 24.974,164.583 24.984 C 163.208 24.994,161.071 25.077,159.833 25.170 C 158.596 25.262,156.008 25.409,154.083 25.496 C 149.409 25.707,145.396 25.971,143.668 26.182 C 142.890 26.277,141.254 26.421,140.034 26.503 C 138.813 26.585,137.087 26.729,136.199 26.824 C 134.716 26.981,133.718 27.082,129.417 27.509 C 126.724 27.776,118.731 28.803,114.500 29.425 C 113.629 29.553,112.354 29.739,111.667 29.837 C 110.979 29.935,109.704 30.125,108.833 30.259 C 107.962 30.393,106.650 30.580,105.917 30.673 C 105.183 30.766,104.058 30.946,103.417 31.073 C 102.775 31.200,101.500 31.427,100.583 31.578 C 99.667 31.729,98.617 31.925,98.250 32.014 C 97.883 32.103,97.072 32.248,96.448 32.335 C 95.823 32.422,95.248 32.533,95.170 32.581 C 95.092 32.630,94.403 32.786,93.639 32.929 C 92.875 33.071,91.763 33.291,91.167 33.417 C 90.571 33.543,89.558 33.756,88.917 33.890 C 88.275 34.024,87.225 34.257,86.583 34.406 C 85.942 34.556,84.918 34.788,84.309 34.921 C 83.700 35.055,83.086 35.208,82.946 35.262 C 82.806 35.316,82.254 35.461,81.720 35.584 C 79.129 36.183,76.644 36.845,74.250 37.573 C 73.792 37.713,73.042 37.938,72.583 38.073 C 71.553 38.377,67.242 39.861,66.000 40.339 C 65.496 40.533,64.858 40.760,64.583 40.843 C 64.308 40.927,63.933 41.061,63.750 41.141 C 62.467 41.703,62.135 41.833,61.985 41.833 C 61.562 41.833,56.361 44.240,54.333 45.374 C 52.555 46.369,49.239 48.636,48.333 49.476 C 47.829 49.944,47.304 50.371,47.167 50.425 C 47.029 50.479,46.413 51.099,45.797 51.803 C 45.181 52.507,44.447 53.346,44.165 53.667 C 41.779 56.391,41.173 61.067,42.812 64.112 C 42.902 64.280,43.019 64.529,43.073 64.667 C 43.850 66.671,46.321 69.480,49.417 71.877 C 50.534 72.742,51.848 73.667,51.960 73.667 C 52.037 73.667,52.397 73.883,52.759 74.148 C 53.531 74.713,54.913 75.468,57.909 76.961 C 59.984 77.995,60.406 78.192,61.748 78.755 C 62.070 78.890,62.577 79.106,62.875 79.235 C 65.579 80.406,70.152 81.986,78.333 84.575 C 80.363 85.218,82.128 85.028,81.692 84.214 C 81.514 83.881,80.212 83.167,79.783 83.167 C 79.638 83.167,79.479 83.100,79.428 83.019 C 79.378 82.938,79.055 82.818,78.710 82.754 C 78.365 82.690,78.008 82.576,77.917 82.502 C 77.825 82.428,77.487 82.291,77.167 82.196 C 76.026 81.861,73.581 80.957,73.425 80.813 C 73.338 80.732,73.141 80.667,72.988 80.667 C 72.747 80.667,72.077 80.417,70.750 79.831 C 70.567 79.751,70.004 79.521,69.500 79.322 C 64.657 77.406,57.754 73.431,55.651 71.347 C 55.505 71.202,54.973 70.696,54.469 70.224 C 53.964 69.751,53.299 69.038,52.989 68.640 C 52.679 68.242,52.379 67.879,52.323 67.833 C 52.267 67.787,51.976 67.300,51.676 66.750 C 48.919 61.691,50.365 56.643,55.750 52.529 C 56.300 52.109,56.788 51.717,56.833 51.657 C 56.937 51.522,58.609 50.340,59.833 49.536 C 61.163 48.662,62.122 48.141,64.833 46.821 C 68.014 45.273,68.552 45.030,70.500 44.264 C 70.912 44.102,71.475 43.869,71.750 43.746 C 73.619 42.914,81.906 40.051,83.328 39.748 C 83.646 39.680,84.021 39.564,84.161 39.490 C 84.302 39.416,84.717 39.285,85.083 39.198 C 85.450 39.111,86.350 38.872,87.083 38.666 C 87.817 38.460,88.679 38.234,89.000 38.163 C 89.321 38.093,90.183 37.873,90.917 37.675 C 93.093 37.086,94.927 36.645,97.417 36.111 C 98.058 35.973,99.071 35.747,99.667 35.609 C 100.263 35.470,101.200 35.269,101.750 35.163 C 102.300 35.056,103.162 34.869,103.667 34.746 C 104.171 34.623,105.033 34.441,105.583 34.340 C 106.133 34.239,107.108 34.054,107.750 33.929 C 110.427 33.407,113.502 32.861,115.750 32.507 C 116.392 32.407,117.233 32.252,117.619 32.164 C 118.005 32.077,119.017 31.927,119.869 31.832 C 120.720 31.737,121.642 31.593,121.917 31.511 C 122.192 31.430,122.979 31.317,123.667 31.260 C 124.354 31.203,125.179 31.087,125.500 31.001 C 125.821 30.915,126.833 30.768,127.750 30.675 C 129.468 30.499,130.798 30.345,134.250 29.923 C 137.552 29.519,140.693 29.170,141.667 29.099 C 142.171 29.062,143.258 28.952,144.083 28.855 C 146.461 28.574,149.232 28.320,151.667 28.159 C 152.904 28.076,154.592 27.931,155.417 27.836 C 156.242 27.741,158.192 27.593,159.750 27.507 C 161.308 27.421,163.746 27.275,165.167 27.182 C 171.359 26.778,174.710 26.610,179.083 26.487 C 188.811 26.212,190.500 26.029,190.500 25.248 C 190.500 24.459,181.329 24.228,171.083 24.759 M95.917 49.243 C 87.396 50.090,82.247 54.387,80.932 61.750 C 80.551 63.885,80.888 67.788,81.507 68.407 C 81.595 68.495,81.667 68.688,81.667 68.836 C 81.667 68.984,82.013 69.621,82.437 70.253 C 84.414 73.202,85.787 74.283,89.417 75.753 C 90.242 76.088,91.057 76.436,91.229 76.528 C 91.400 76.620,91.850 76.795,92.229 76.917 C 92.607 77.039,94.004 77.523,95.333 77.992 C 96.662 78.462,98.747 79.177,99.964 79.582 C 106.291 81.686,108.833 84.353,108.833 88.886 C 108.833 92.392,106.806 94.596,102.603 95.662 C 99.507 96.447,93.950 96.447,90.963 95.662 C 90.571 95.559,89.800 95.356,89.250 95.211 C 88.205 94.935,87.155 94.545,85.750 93.911 C 85.292 93.704,84.654 93.418,84.333 93.275 C 84.012 93.133,83.345 92.783,82.851 92.499 C 81.454 91.696,81.487 91.611,81.538 95.865 L 81.583 99.572 83.000 100.188 C 84.995 101.056,85.132 101.110,86.250 101.469 C 98.885 105.530,111.471 102.710,115.122 95.000 C 116.523 92.043,116.890 87.135,115.895 84.688 C 115.770 84.379,115.667 83.991,115.667 83.827 C 115.667 82.377,112.372 78.111,110.072 76.582 C 109.140 75.963,104.733 73.678,104.455 73.670 C 104.331 73.667,102.576 72.884,101.611 72.402 C 101.352 72.273,101.063 72.167,100.970 72.167 C 100.877 72.167,100.564 72.065,100.275 71.942 C 99.560 71.635,97.991 71.053,97.583 70.943 C 93.145 69.747,89.865 67.851,88.844 65.891 C 87.483 63.281,89.113 59.060,92.000 57.716 C 93.638 56.953,93.981 56.840,95.713 56.492 C 97.966 56.040,103.311 56.080,105.167 56.563 C 108.278 57.372,109.635 57.873,112.046 59.102 C 113.061 59.620,113.017 59.786,112.962 55.675 L 112.917 52.277 112.182 51.888 C 111.778 51.675,111.377 51.500,111.291 51.500 C 111.204 51.500,110.897 51.395,110.609 51.267 C 106.474 49.436,101.237 48.714,95.917 49.243 M277.875 49.337 C 277.377 49.539,277.278 56.254,277.765 56.741 C 277.994 56.970,278.522 57.000,281.640 56.962 L 285.250 56.917 285.250 53.083 L 285.250 49.250 281.750 49.217 C 279.825 49.199,278.081 49.253,277.875 49.337 M254.454 51.538 C 254.196 51.730,254.164 52.285,254.126 57.333 L 254.083 62.917 250.750 63.009 C 248.917 63.060,247.396 63.116,247.371 63.134 C 247.346 63.152,247.346 64.535,247.371 66.208 L 247.417 69.250 250.750 69.342 C 252.583 69.393,254.101 69.449,254.122 69.467 C 254.143 69.485,254.184 74.994,254.213 81.708 C 254.272 95.325,254.258 95.135,255.431 97.500 C 256.171 98.992,257.973 100.870,259.250 101.483 C 259.708 101.703,260.224 101.953,260.395 102.039 C 263.242 103.462,268.630 103.649,271.542 102.425 L 272.167 102.162 272.167 99.095 C 272.167 95.516,272.152 95.442,271.529 95.751 C 268.459 97.279,263.779 96.825,262.451 94.871 C 261.484 93.448,261.500 93.676,261.500 81.181 C 261.500 71.818,261.541 69.674,261.722 69.523 C 261.872 69.399,263.613 69.324,267.014 69.294 L 272.083 69.250 272.083 66.167 L 272.083 63.083 266.875 63.039 C 264.010 63.015,261.651 62.978,261.633 62.956 C 261.614 62.934,261.558 60.329,261.508 57.167 L 261.417 51.417 258.078 51.372 C 255.581 51.338,254.668 51.380,254.454 51.538 M134.750 62.518 C 133.833 62.594,132.821 62.727,132.500 62.814 C 132.179 62.901,131.579 63.023,131.167 63.086 C 130.754 63.148,130.079 63.297,129.667 63.418 C 129.254 63.538,128.467 63.761,127.917 63.913 C 127.367 64.066,126.654 64.291,126.333 64.415 C 124.204 65.235,123.660 65.464,122.917 65.855 L 122.083 66.293 122.038 84.188 C 122.012 94.031,122.033 102.252,122.082 102.458 C 122.215 103.005,129.037 103.055,129.327 102.511 C 129.443 102.295,129.500 96.950,129.500 86.353 L 129.500 70.517 130.375 70.271 C 137.178 68.356,144.409 69.346,146.055 72.417 C 146.972 74.129,146.910 73.069,147.000 88.381 C 147.073 100.698,147.115 102.533,147.333 102.672 C 147.477 102.764,148.996 102.815,150.917 102.791 L 154.250 102.750 154.293 88.440 C 154.329 76.095,154.301 74.013,154.084 73.284 C 153.703 72.001,153.747 71.213,154.208 71.085 C 154.415 71.028,154.846 70.881,155.167 70.759 C 159.233 69.210,165.907 68.704,168.275 69.765 C 168.564 69.894,168.842 70.000,168.893 70.000 C 169.520 70.000,171.106 71.800,171.538 73.000 C 172.140 74.674,172.167 75.357,172.167 88.852 C 172.167 97.727,172.224 102.296,172.339 102.511 C 172.567 102.937,178.975 103.016,179.322 102.597 C 179.471 102.418,179.504 98.846,179.459 87.972 L 179.399 73.583 179.013 72.333 C 176.265 63.434,167.258 60.248,154.333 63.604 C 153.462 63.830,152.466 64.087,152.119 64.176 C 151.773 64.265,151.360 64.402,151.203 64.480 C 150.835 64.662,149.849 65.011,149.409 65.113 C 149.202 65.161,148.667 64.954,148.056 64.590 C 144.827 62.666,140.697 62.023,134.750 62.518 M347.500 62.516 C 346.629 62.591,345.729 62.693,345.500 62.743 C 345.271 62.793,344.521 62.945,343.833 63.082 C 341.357 63.576,339.064 64.309,336.417 65.453 L 334.917 66.102 334.917 84.426 L 334.917 102.750 338.250 102.791 C 340.171 102.815,341.689 102.764,341.833 102.672 C 342.052 102.532,342.094 100.495,342.167 86.552 L 342.250 70.593 343.000 70.305 C 343.412 70.147,343.950 70.014,344.195 70.009 C 344.440 70.004,345.115 69.876,345.695 69.724 C 347.300 69.304,353.526 69.312,354.917 69.736 C 357.474 70.516,358.621 71.609,359.433 74.039 C 359.702 74.842,359.732 76.091,359.790 88.775 L 359.852 102.633 360.218 102.731 C 361.315 103.025,366.820 102.836,367.001 102.498 C 367.330 101.884,367.124 74.320,366.782 73.083 C 366.393 71.677,366.414 71.213,366.875 71.085 C 367.081 71.028,367.512 70.882,367.833 70.762 C 372.132 69.152,378.748 68.703,381.250 69.851 C 382.571 70.457,384.167 72.093,384.167 72.840 C 384.167 73.009,384.233 73.188,384.313 73.238 C 384.673 73.460,384.726 75.051,384.819 88.381 C 384.904 100.688,384.949 102.533,385.167 102.672 C 385.310 102.764,386.799 102.815,388.667 102.791 L 391.917 102.750 391.917 87.917 C 391.917 71.176,392.011 72.454,390.565 69.538 C 388.619 65.616,384.568 63.088,379.298 62.511 C 375.657 62.112,371.273 62.449,367.583 63.412 C 364.460 64.228,364.084 64.345,362.703 64.933 C 362.059 65.208,361.561 65.233,361.417 65.000 C 361.311 64.828,358.972 63.683,358.083 63.366 C 355.451 62.431,351.848 62.141,347.500 62.516 M196.250 62.661 C 194.038 62.943,192.917 63.194,190.253 64.003 C 188.765 64.455,188.839 64.267,188.836 67.615 C 188.833 70.919,188.782 70.824,190.303 70.366 C 193.198 69.496,194.590 69.241,197.675 69.014 C 205.989 68.403,209.864 70.830,210.456 77.018 C 210.549 77.993,210.417 78.050,208.528 77.839 C 201.683 77.076,195.626 77.843,191.250 80.028 C 189.630 80.837,189.177 81.165,187.838 82.500 C 186.133 84.199,185.432 85.485,184.930 87.833 C 183.810 93.071,186.544 98.803,191.284 101.155 C 197.809 104.393,207.382 104.007,213.306 100.267 C 215.001 99.197,216.919 96.239,217.666 93.544 C 218.118 91.913,218.182 76.743,217.745 74.750 C 216.958 71.154,215.873 69.024,213.753 66.917 C 211.726 64.901,209.405 63.676,206.167 62.910 C 204.788 62.584,198.161 62.418,196.250 62.661 M237.833 62.613 C 234.244 62.901,227.225 64.629,223.992 66.019 L 223.167 66.374 223.167 84.404 C 223.167 98.205,223.214 102.480,223.367 102.633 C 223.751 103.018,230.116 102.906,230.327 102.511 C 230.443 102.295,230.500 97.061,230.500 86.709 C 230.500 74.584,230.545 71.171,230.708 70.956 C 231.015 70.551,234.941 69.753,237.917 69.490 C 238.925 69.402,240.350 69.274,241.083 69.206 L 242.417 69.083 242.417 65.833 L 242.417 62.583 240.500 62.568 C 239.446 62.560,238.246 62.580,237.833 62.613 M278.077 63.208 C 278.033 63.323,278.017 72.267,278.040 83.083 L 278.083 102.750 281.360 102.795 C 284.174 102.834,284.673 102.803,284.901 102.575 C 285.250 102.226,285.314 63.548,284.967 63.200 C 284.675 62.909,278.188 62.917,278.077 63.208 M293.436 63.260 C 293.274 63.683,293.331 87.287,293.498 88.583 C 293.748 90.536,294.028 92.074,294.165 92.250 C 294.236 92.342,294.349 92.679,294.415 93.000 C 294.552 93.660,295.875 96.513,296.205 96.858 C 296.324 96.982,296.812 97.579,297.290 98.185 C 298.769 100.061,300.785 101.389,303.833 102.494 C 306.856 103.591,313.205 103.576,316.580 102.465 C 320.194 101.276,323.461 98.594,324.863 95.667 C 326.856 91.504,326.843 91.640,326.793 76.206 L 326.750 63.083 323.500 63.036 C 321.712 63.010,320.085 63.029,319.882 63.079 L 319.515 63.169 319.457 76.626 C 319.392 91.903,319.460 91.209,317.792 93.784 C 316.323 96.053,311.688 97.543,308.333 96.825 C 307.921 96.736,307.321 96.619,307.000 96.564 C 305.041 96.229,302.925 94.604,302.000 92.724 C 300.901 90.492,300.943 91.076,300.842 76.417 L 300.750 63.083 297.144 63.038 C 293.965 62.999,293.526 63.025,293.436 63.260 M207.885 83.694 C 210.955 83.940,210.719 83.571,210.632 87.978 C 210.521 93.597,209.737 94.906,205.667 96.271 C 204.326 96.720,199.069 96.722,197.500 96.274 C 193.830 95.226,192.127 93.264,192.129 90.088 C 192.131 85.344,198.124 82.913,207.885 83.694 " stroke="none" fill="#0c6c34" fill-rule="evenodd"></path><path id="path1" d="M214.083 3.825 C 211.498 4.469,207.500 7.015,207.500 8.017 C 207.500 8.086,207.405 8.242,207.288 8.363 C 205.517 10.205,204.772 16.954,206.180 18.408 C 206.264 18.495,206.333 18.684,206.333 18.827 C 206.333 19.704,209.020 22.744,210.649 23.711 C 213.684 25.510,217.906 25.641,221.164 24.036 C 221.484 23.879,221.845 23.656,221.968 23.542 C 222.090 23.427,222.258 23.333,222.340 23.333 C 222.625 23.333,224.919 20.898,225.409 20.076 C 230.160 12.098,222.870 1.637,214.083 3.825 M183.574 14.490 C 183.385 14.568,180.685 14.679,177.574 14.736 C 172.131 14.836,163.615 15.160,157.500 15.500 C 151.554 15.830,142.569 16.414,138.250 16.751 C 136.508 16.886,134.633 17.028,134.083 17.064 C 133.533 17.101,132.296 17.212,131.333 17.310 C 130.371 17.408,128.233 17.610,126.583 17.757 C 124.933 17.905,122.871 18.098,122.000 18.187 C 121.129 18.276,119.367 18.450,118.083 18.575 C 116.800 18.700,115.563 18.847,115.333 18.901 C 115.104 18.956,114.167 19.074,113.250 19.164 C 112.333 19.254,110.646 19.437,109.500 19.572 C 108.354 19.706,106.704 19.899,105.833 20.000 C 104.962 20.101,103.919 20.258,103.515 20.348 C 103.111 20.439,102.054 20.582,101.167 20.667 C 100.279 20.751,99.222 20.894,98.818 20.985 C 98.414 21.075,97.408 21.239,96.583 21.348 C 95.758 21.458,94.446 21.643,93.667 21.761 C 92.888 21.878,91.650 22.058,90.917 22.161 C 90.183 22.264,89.021 22.454,88.333 22.583 C 87.646 22.713,86.521 22.906,85.833 23.012 C 85.146 23.117,83.946 23.313,83.167 23.447 C 82.387 23.580,81.281 23.757,80.709 23.838 C 80.136 23.920,79.381 24.064,79.031 24.158 C 78.681 24.252,77.950 24.401,77.406 24.487 C 74.944 24.880,72.178 25.382,70.500 25.740 C 69.904 25.867,68.779 26.095,68.000 26.246 C 67.221 26.397,66.202 26.629,65.735 26.760 C 65.269 26.892,64.754 27.000,64.591 27.000 C 64.322 27.000,63.282 27.228,60.376 27.923 C 59.803 28.060,58.828 28.288,58.209 28.429 C 57.590 28.570,56.825 28.766,56.510 28.865 C 56.195 28.964,55.520 29.137,55.010 29.250 C 54.500 29.364,53.221 29.696,52.167 29.989 C 51.112 30.282,49.937 30.589,49.553 30.670 C 48.916 30.806,48.264 30.995,46.417 31.580 C 46.050 31.696,45.337 31.911,44.833 32.058 C 43.343 32.494,34.220 35.544,33.583 35.820 C 33.400 35.900,32.875 36.095,32.417 36.255 C 31.206 36.677,28.664 37.643,28.083 37.902 C 27.808 38.024,27.246 38.260,26.833 38.425 C 23.635 39.706,19.566 41.667,17.478 42.931 C 16.962 43.244,16.499 43.500,16.450 43.500 C 16.401 43.500,15.511 44.074,14.472 44.775 C 8.374 48.893,4.461 53.051,3.070 56.890 C 1.887 60.156,1.848 64.119,2.974 66.750 C 5.000 71.487,8.563 75.435,14.083 79.064 C 15.000 79.666,15.897 80.273,16.076 80.413 C 16.255 80.552,16.460 80.667,16.531 80.667 C 16.602 80.667,17.161 80.973,17.773 81.347 C 18.384 81.721,19.042 82.097,19.234 82.182 C 19.426 82.268,20.258 82.712,21.083 83.169 C 21.908 83.627,22.846 84.120,23.167 84.265 C 23.488 84.410,24.350 84.815,25.083 85.164 C 27.054 86.101,28.677 86.833,28.785 86.833 C 28.837 86.833,29.188 86.976,29.565 87.150 C 31.027 87.826,35.734 89.667,36.001 89.667 C 36.095 89.667,36.301 89.741,36.461 89.832 C 36.815 90.034,38.051 90.472,38.812 90.665 C 39.121 90.743,39.455 90.888,39.554 90.987 C 39.653 91.086,39.876 91.167,40.050 91.167 C 40.224 91.167,40.603 91.271,40.891 91.399 C 41.180 91.527,41.792 91.743,42.250 91.880 C 44.546 92.565,47.146 93.376,47.667 93.569 C 50.514 94.627,51.994 94.975,53.719 94.990 C 56.383 95.013,56.215 93.691,53.383 92.346 C 52.576 91.964,51.804 91.580,51.667 91.495 C 51.529 91.409,51.042 91.146,50.583 90.910 C 50.125 90.674,49.525 90.340,49.250 90.168 C 48.975 89.996,48.450 89.702,48.083 89.515 C 47.717 89.328,47.016 88.910,46.527 88.587 C 46.038 88.264,45.613 88.000,45.583 88.000 C 45.538 88.000,44.418 87.285,43.500 86.670 C 41.191 85.122,37.836 82.712,37.583 82.419 C 37.492 82.313,36.892 81.824,36.250 81.332 C 33.922 79.549,28.167 73.699,28.167 73.116 C 28.167 73.061,27.841 72.544,27.443 71.966 C 25.979 69.844,24.663 66.636,24.340 64.404 C 23.727 60.161,24.575 56.909,27.373 52.772 C 28.960 50.427,32.351 47.297,35.935 44.870 C 37.245 43.984,38.834 43.010,40.250 42.227 C 41.167 41.720,42.029 41.238,42.167 41.157 C 43.115 40.594,48.251 38.190,50.167 37.412 C 50.579 37.245,51.231 36.971,51.616 36.804 C 52.000 36.637,52.427 36.500,52.564 36.500 C 52.701 36.500,52.860 36.425,52.917 36.333 C 52.973 36.242,53.146 36.166,53.302 36.166 C 53.457 36.165,53.785 36.060,54.030 35.931 C 54.276 35.803,54.726 35.645,55.030 35.580 C 55.335 35.515,55.658 35.406,55.750 35.339 C 55.842 35.271,56.929 34.898,58.167 34.510 C 59.404 34.122,60.604 33.741,60.833 33.664 C 61.063 33.588,61.813 33.366,62.500 33.172 C 63.188 32.978,64.162 32.702,64.667 32.558 C 65.171 32.415,65.958 32.197,66.417 32.075 C 66.875 31.953,67.587 31.762,68.000 31.652 C 68.776 31.444,70.020 31.148,71.750 30.759 C 74.709 30.093,75.342 29.955,76.333 29.760 C 76.929 29.643,77.717 29.467,78.083 29.369 C 78.450 29.271,79.350 29.074,80.083 28.931 C 80.817 28.788,81.829 28.587,82.333 28.483 C 84.812 27.972,89.878 26.964,91.417 26.675 C 91.967 26.572,92.792 26.405,93.250 26.305 C 93.708 26.204,94.458 26.064,94.917 25.993 C 95.854 25.848,98.323 25.415,99.583 25.175 C 100.042 25.087,100.942 24.933,101.583 24.832 C 105.698 24.186,107.351 23.931,109.667 23.586 C 110.537 23.456,111.813 23.263,112.500 23.159 C 113.188 23.054,114.050 22.936,114.417 22.898 C 114.783 22.860,115.871 22.718,116.833 22.582 C 119.539 22.201,121.035 22.021,127.083 21.346 C 128.000 21.244,129.387 21.084,130.167 20.989 C 130.946 20.895,132.333 20.752,133.250 20.672 C 134.167 20.592,135.592 20.450,136.417 20.356 C 138.595 20.109,142.937 19.709,146.667 19.412 C 148.454 19.270,151.192 19.043,152.750 18.907 C 155.443 18.673,156.623 18.590,163.250 18.169 C 164.808 18.070,167.808 17.878,169.917 17.741 C 172.025 17.605,174.621 17.495,175.686 17.497 C 176.750 17.499,178.018 17.425,178.503 17.333 C 178.988 17.241,182.317 17.091,185.901 17.000 C 197.755 16.699,199.246 16.587,199.958 15.946 C 200.496 15.462,200.423 15.108,199.708 14.739 C 199.030 14.389,184.364 14.162,183.574 14.490 " stroke="none" fill="#e4062e" fill-rule="evenodd"></path><path id="path2" d="M0.000 55.667 L 0.000 111.333 200.000 111.333 L 400.000 111.333 400.000 55.667 L 400.000 0.000 200.000 0.000 L 0.000 0.000 0.000 55.667 M218.973 4.016 C 225.959 5.976,229.115 13.852,225.409 20.076 C 224.919 20.898,222.625 23.333,222.340 23.333 C 222.258 23.333,222.090 23.427,221.968 23.542 C 219.804 25.565,213.925 25.653,210.649 23.711 C 209.020 22.744,206.333 19.704,206.333 18.827 C 206.333 18.684,206.264 18.495,206.180 18.408 C 204.772 16.954,205.517 10.205,207.288 8.363 C 207.405 8.242,207.500 8.086,207.500 8.017 C 207.500 7.344,210.689 4.968,212.400 4.366 C 214.751 3.539,216.871 3.426,218.973 4.016 M199.708 14.739 C 200.423 15.108,200.496 15.462,199.958 15.946 C 199.246 16.587,197.755 16.699,185.901 17.000 C 182.317 17.091,178.988 17.241,178.503 17.333 C 178.018 17.425,176.750 17.499,175.686 17.497 C 174.621 17.495,172.025 17.605,169.917 17.741 C 167.808 17.878,164.808 18.070,163.250 18.169 C 156.623 18.590,155.443 18.673,152.750 18.907 C 151.192 19.043,148.454 19.270,146.667 19.412 C 142.937 19.709,138.595 20.109,136.417 20.356 C 135.592 20.450,134.167 20.592,133.250 20.672 C 132.333 20.752,130.946 20.895,130.167 20.989 C 129.387 21.084,128.000 21.244,127.083 21.346 C 121.035 22.021,119.539 22.201,116.833 22.582 C 115.871 22.718,114.783 22.860,114.417 22.898 C 114.050 22.936,113.188 23.054,112.500 23.159 C 111.813 23.263,110.537 23.456,109.667 23.586 C 107.351 23.931,105.698 24.186,101.583 24.832 C 100.942 24.933,100.042 25.087,99.583 25.175 C 98.323 25.415,95.854 25.848,94.917 25.993 C 94.458 26.064,93.708 26.204,93.250 26.305 C 92.792 26.405,91.967 26.572,91.417 26.675 C 90.099 26.922,88.889 27.162,84.333 28.076 C 83.737 28.196,82.837 28.379,82.333 28.483 C 81.829 28.587,80.817 28.788,80.083 28.931 C 79.350 29.074,78.450 29.271,78.083 29.369 C 77.717 29.467,76.929 29.643,76.333 29.760 C 74.416 30.137,69.444 31.266,68.000 31.652 C 67.587 31.762,66.875 31.953,66.417 32.075 C 65.958 32.197,65.171 32.415,64.667 32.558 C 64.162 32.702,63.188 32.978,62.500 33.172 C 61.813 33.366,61.063 33.588,60.833 33.664 C 60.604 33.741,59.404 34.122,58.167 34.510 C 56.929 34.898,55.842 35.271,55.750 35.339 C 55.658 35.406,55.335 35.515,55.030 35.580 C 54.726 35.645,54.276 35.803,54.030 35.931 C 53.785 36.060,53.457 36.165,53.302 36.166 C 53.146 36.166,52.973 36.242,52.917 36.333 C 52.860 36.425,52.701 36.500,52.564 36.500 C 52.427 36.500,52.000 36.637,51.616 36.804 C 51.231 36.971,50.579 37.245,50.167 37.412 C 48.251 38.190,43.115 40.594,42.167 41.157 C 42.029 41.238,41.167 41.720,40.250 42.227 C 38.834 43.010,37.245 43.984,35.935 44.870 C 32.351 47.297,28.960 50.427,27.373 52.772 C 24.575 56.909,23.727 60.161,24.340 64.404 C 24.663 66.636,25.979 69.844,27.443 71.966 C 27.841 72.544,28.167 73.061,28.167 73.116 C 28.167 73.699,33.922 79.549,36.250 81.332 C 36.892 81.824,37.492 82.313,37.583 82.419 C 37.836 82.712,41.191 85.122,43.500 86.670 C 44.418 87.285,45.538 88.000,45.583 88.000 C 45.613 88.000,46.038 88.264,46.527 88.587 C 47.016 88.910,47.717 89.328,48.083 89.515 C 48.450 89.702,48.975 89.996,49.250 90.168 C 49.525 90.340,50.125 90.674,50.583 90.910 C 51.042 91.146,51.529 91.409,51.667 91.495 C 51.804 91.580,52.576 91.964,53.383 92.346 C 56.215 93.691,56.383 95.013,53.719 94.990 C 51.994 94.975,50.514 94.627,47.667 93.569 C 47.146 93.376,44.546 92.565,42.250 91.880 C 41.792 91.743,41.180 91.527,40.891 91.399 C 40.603 91.271,40.224 91.167,40.050 91.167 C 39.876 91.167,39.653 91.086,39.554 90.987 C 39.455 90.888,39.121 90.743,38.812 90.665 C 38.051 90.472,36.815 90.034,36.461 89.832 C 36.301 89.741,36.095 89.667,36.001 89.667 C 35.734 89.667,31.027 87.826,29.565 87.150 C 29.188 86.976,28.837 86.833,28.785 86.833 C 28.677 86.833,27.054 86.101,25.083 85.164 C 24.350 84.815,23.488 84.410,23.167 84.265 C 22.846 84.120,21.908 83.627,21.083 83.169 C 20.258 82.712,19.426 82.268,19.234 82.182 C 19.042 82.097,18.384 81.721,17.773 81.347 C 17.161 80.973,16.602 80.667,16.531 80.667 C 16.460 80.667,16.255 80.552,16.076 80.413 C 15.897 80.273,15.000 79.666,14.083 79.064 C 8.563 75.435,5.000 71.487,2.974 66.750 C 1.599 63.537,1.963 58.707,3.842 55.234 C 5.188 52.746,8.632 48.945,11.333 46.966 C 12.855 45.851,16.326 43.500,16.450 43.500 C 16.499 43.500,16.962 43.244,17.478 42.931 C 19.566 41.667,23.635 39.706,26.833 38.425 C 27.246 38.260,27.808 38.024,28.083 37.902 C 28.664 37.643,31.206 36.677,32.417 36.255 C 32.875 36.095,33.400 35.900,33.583 35.820 C 34.220 35.544,43.343 32.494,44.833 32.058 C 45.337 31.911,46.050 31.696,46.417 31.580 C 48.264 30.995,48.916 30.806,49.553 30.670 C 49.937 30.589,51.112 30.282,52.167 29.989 C 53.221 29.696,54.500 29.364,55.010 29.250 C 55.520 29.137,56.195 28.964,56.510 28.865 C 56.825 28.766,57.590 28.570,58.209 28.429 C 58.828 28.288,59.803 28.060,60.376 27.923 C 63.282 27.228,64.322 27.000,64.591 27.000 C 64.754 27.000,65.269 26.892,65.735 26.760 C 66.202 26.629,67.221 26.397,68.000 26.246 C 68.779 26.095,69.904 25.867,70.500 25.740 C 72.178 25.382,74.944 24.880,77.406 24.487 C 77.950 24.401,78.681 24.252,79.031 24.158 C 79.381 24.064,80.136 23.920,80.709 23.838 C 81.281 23.757,82.387 23.580,83.167 23.447 C 83.946 23.313,85.146 23.117,85.833 23.012 C 86.521 22.906,87.646 22.713,88.333 22.583 C 89.021 22.454,90.183 22.264,90.917 22.161 C 91.650 22.058,92.888 21.878,93.667 21.761 C 94.446 21.643,95.758 21.458,96.583 21.348 C 97.408 21.239,98.414 21.075,98.818 20.985 C 99.222 20.894,100.279 20.751,101.167 20.667 C 102.054 20.582,103.111 20.439,103.515 20.348 C 103.919 20.258,104.962 20.101,105.833 20.000 C 106.704 19.899,108.354 19.706,109.500 19.572 C 110.646 19.437,112.333 19.254,113.250 19.164 C 114.167 19.074,115.104 18.956,115.333 18.901 C 115.563 18.847,116.800 18.700,118.083 18.575 C 119.367 18.450,121.129 18.276,122.000 18.187 C 122.871 18.098,124.933 17.905,126.583 17.757 C 128.233 17.610,130.371 17.408,131.333 17.310 C 132.296 17.212,133.533 17.101,134.083 17.064 C 134.633 17.028,136.508 16.886,138.250 16.751 C 151.030 15.754,167.185 14.927,177.574 14.736 C 180.685 14.679,183.385 14.568,183.574 14.490 C 184.364 14.162,199.030 14.389,199.708 14.739 M189.896 24.752 C 190.599 25.046,190.665 25.384,190.093 25.759 C 189.619 26.070,186.465 26.278,179.083 26.487 C 174.710 26.610,171.359 26.778,165.167 27.182 C 163.746 27.275,161.308 27.421,159.750 27.507 C 158.192 27.593,156.242 27.741,155.417 27.836 C 154.592 27.931,152.904 28.076,151.667 28.159 C 149.232 28.320,146.461 28.574,144.083 28.855 C 143.258 28.952,142.171 29.062,141.667 29.099 C 140.693 29.170,137.552 29.519,134.250 29.923 C 130.798 30.345,129.468 30.499,127.750 30.675 C 126.833 30.768,125.821 30.915,125.500 31.001 C 125.179 31.087,124.354 31.203,123.667 31.260 C 122.979 31.317,122.192 31.430,121.917 31.511 C 121.642 31.593,120.720 31.737,119.869 31.832 C 119.017 31.927,118.005 32.077,117.619 32.164 C 117.233 32.252,116.392 32.407,115.750 32.507 C 113.502 32.861,110.427 33.407,107.750 33.929 C 107.108 34.054,106.133 34.239,105.583 34.340 C 105.033 34.441,104.171 34.623,103.667 34.746 C 103.162 34.869,102.300 35.056,101.750 35.163 C 101.200 35.269,100.263 35.470,99.667 35.609 C 99.071 35.747,98.058 35.973,97.417 36.111 C 94.927 36.645,93.093 37.086,90.917 37.675 C 90.183 37.873,89.321 38.093,89.000 38.163 C 88.679 38.234,87.817 38.460,87.083 38.666 C 86.350 38.872,85.450 39.111,85.083 39.198 C 84.717 39.285,84.302 39.416,84.161 39.490 C 84.021 39.564,83.646 39.680,83.328 39.748 C 81.906 40.051,73.619 42.914,71.750 43.746 C 71.475 43.869,70.912 44.102,70.500 44.264 C 68.552 45.030,68.014 45.273,64.833 46.821 C 62.122 48.141,61.163 48.662,59.833 49.536 C 58.609 50.340,56.937 51.522,56.833 51.657 C 56.788 51.717,56.300 52.109,55.750 52.529 C 50.365 56.643,48.919 61.691,51.676 66.750 C 51.976 67.300,52.267 67.787,52.323 67.833 C 52.379 67.879,52.679 68.242,52.989 68.640 C 53.299 69.038,53.964 69.751,54.469 70.224 C 54.973 70.696,55.505 71.202,55.651 71.347 C 57.754 73.431,64.657 77.406,69.500 79.322 C 70.004 79.521,70.567 79.751,70.750 79.831 C 72.077 80.417,72.747 80.667,72.988 80.667 C 73.141 80.667,73.338 80.732,73.425 80.813 C 73.581 80.957,76.026 81.861,77.167 82.196 C 77.487 82.291,77.825 82.428,77.917 82.502 C 78.008 82.576,78.365 82.690,78.710 82.754 C 79.055 82.818,79.378 82.938,79.428 83.019 C 79.479 83.100,79.638 83.167,79.783 83.167 C 80.212 83.167,81.514 83.881,81.692 84.214 C 82.128 85.028,80.363 85.218,78.333 84.575 C 70.152 81.986,65.579 80.406,62.875 79.235 C 62.577 79.106,62.070 78.890,61.748 78.755 C 60.406 78.192,59.984 77.995,57.909 76.961 C 54.913 75.468,53.531 74.713,52.759 74.148 C 52.397 73.883,52.037 73.667,51.960 73.667 C 51.848 73.667,50.534 72.742,49.417 71.877 C 46.321 69.480,43.850 66.671,43.073 64.667 C 43.019 64.529,42.902 64.280,42.812 64.112 C 41.173 61.067,41.779 56.391,44.165 53.667 C 44.447 53.346,45.181 52.507,45.797 51.803 C 46.413 51.099,47.029 50.479,47.167 50.425 C 47.304 50.371,47.829 49.944,48.333 49.476 C 50.199 47.745,54.474 45.135,58.250 43.421 C 61.063 42.144,61.793 41.833,61.985 41.833 C 62.135 41.833,62.467 41.703,63.750 41.141 C 63.933 41.061,64.308 40.927,64.583 40.843 C 64.858 40.760,65.496 40.533,66.000 40.339 C 67.242 39.861,71.553 38.377,72.583 38.073 C 73.042 37.938,73.792 37.713,74.250 37.573 C 76.644 36.845,79.129 36.183,81.720 35.584 C 82.254 35.461,82.806 35.316,82.946 35.262 C 83.086 35.208,83.700 35.055,84.309 34.921 C 84.918 34.788,85.942 34.556,86.583 34.406 C 87.225 34.257,88.275 34.024,88.917 33.890 C 89.558 33.756,90.571 33.543,91.167 33.417 C 91.763 33.291,92.875 33.071,93.639 32.929 C 94.403 32.786,95.092 32.630,95.170 32.581 C 95.248 32.533,95.823 32.422,96.448 32.335 C 97.072 32.248,97.883 32.103,98.250 32.014 C 98.617 31.925,99.667 31.729,100.583 31.578 C 101.500 31.427,102.775 31.200,103.417 31.073 C 104.058 30.946,105.183 30.766,105.917 30.673 C 106.650 30.580,107.962 30.393,108.833 30.259 C 109.704 30.125,110.979 29.935,111.667 29.837 C 112.354 29.739,113.629 29.553,114.500 29.425 C 118.731 28.803,126.724 27.776,129.417 27.509 C 133.718 27.082,134.716 26.981,136.199 26.824 C 137.087 26.729,138.813 26.585,140.034 26.503 C 141.254 26.421,142.890 26.277,143.668 26.182 C 145.396 25.971,149.409 25.707,154.083 25.496 C 156.008 25.409,158.596 25.262,159.833 25.170 C 161.071 25.077,163.208 24.994,164.583 24.984 C 165.958 24.974,168.883 24.873,171.083 24.759 C 177.285 24.438,189.133 24.433,189.896 24.752 M101.825 49.166 C 104.999 49.441,108.229 50.213,110.609 51.267 C 110.897 51.395,111.204 51.500,111.291 51.500 C 111.377 51.500,111.778 51.675,112.182 51.888 L 112.917 52.277 112.962 55.675 C 113.017 59.786,113.061 59.620,112.046 59.102 C 109.635 57.873,108.278 57.372,105.167 56.563 C 102.370 55.836,95.507 56.153,93.333 57.109 C 91.617 57.865,91.171 58.144,90.324 58.991 C 89.262 60.053,88.774 60.976,88.489 62.463 C 87.867 65.703,89.441 67.797,93.917 69.686 C 94.333 69.862,97.133 70.822,97.583 70.943 C 97.991 71.053,99.560 71.635,100.275 71.942 C 100.564 72.065,100.877 72.167,100.970 72.167 C 101.063 72.167,101.352 72.273,101.611 72.402 C 102.576 72.884,104.331 73.667,104.455 73.670 C 104.733 73.678,109.140 75.963,110.072 76.582 C 112.372 78.111,115.667 82.377,115.667 83.827 C 115.667 83.991,115.770 84.379,115.895 84.688 C 116.599 86.418,116.599 90.533,115.897 93.000 C 113.284 102.168,100.122 105.928,86.250 101.469 C 85.132 101.110,84.995 101.056,83.000 100.188 L 81.583 99.572 81.538 95.865 C 81.487 91.611,81.454 91.696,82.851 92.499 C 83.345 92.783,84.012 93.133,84.333 93.275 C 84.654 93.418,85.292 93.704,85.750 93.911 C 87.155 94.545,88.205 94.935,89.250 95.211 C 89.800 95.356,90.571 95.559,90.963 95.662 C 93.950 96.447,99.507 96.447,102.603 95.662 C 106.806 94.596,108.833 92.392,108.833 88.886 C 108.833 84.353,106.291 81.686,99.964 79.582 C 98.747 79.177,96.662 78.462,95.333 77.992 C 94.004 77.523,92.607 77.039,92.229 76.917 C 91.850 76.795,91.400 76.620,91.229 76.528 C 91.057 76.436,90.242 76.088,89.417 75.753 C 85.787 74.283,84.414 73.202,82.437 70.253 C 82.013 69.621,81.667 68.984,81.667 68.836 C 81.667 68.688,81.595 68.495,81.507 68.407 C 80.888 67.788,80.551 63.885,80.932 61.750 C 82.526 52.828,90.264 48.167,101.825 49.166 M285.250 53.083 L 285.250 56.917 281.640 56.962 C 277.054 57.019,277.500 57.447,277.500 52.983 C 277.500 48.758,277.031 49.173,281.750 49.217 L 285.250 49.250 285.250 53.083 M261.508 57.167 C 261.558 60.329,261.614 62.934,261.633 62.956 C 261.651 62.978,264.010 63.015,266.875 63.039 L 272.083 63.083 272.083 66.167 L 272.083 69.250 267.014 69.294 C 263.613 69.324,261.872 69.399,261.722 69.523 C 261.359 69.824,261.399 92.350,261.765 93.453 C 262.817 96.625,267.539 97.737,271.529 95.751 C 272.152 95.442,272.167 95.516,272.167 99.095 L 272.167 102.162 271.542 102.425 C 268.630 103.649,263.242 103.462,260.395 102.039 C 260.224 101.953,259.708 101.703,259.250 101.483 C 257.973 100.870,256.171 98.992,255.431 97.500 C 254.258 95.135,254.272 95.325,254.213 81.708 C 254.184 74.994,254.143 69.485,254.122 69.467 C 254.101 69.449,252.583 69.393,250.750 69.342 L 247.417 69.250 247.371 66.208 C 247.346 64.535,247.346 63.152,247.371 63.134 C 247.396 63.116,248.917 63.060,250.750 63.009 L 254.083 62.917 254.126 57.333 C 254.178 50.565,253.682 51.312,258.078 51.372 L 261.417 51.417 261.508 57.167 M141.454 62.501 C 143.838 62.752,146.254 63.517,148.056 64.590 C 148.667 64.954,149.202 65.161,149.409 65.113 C 149.849 65.011,150.835 64.662,151.203 64.480 C 151.360 64.402,151.773 64.265,152.119 64.176 C 152.466 64.087,153.462 63.830,154.333 63.604 C 167.258 60.248,176.265 63.434,179.013 72.333 L 179.399 73.583 179.459 87.972 C 179.504 98.846,179.471 102.418,179.322 102.597 C 178.975 103.016,172.567 102.937,172.339 102.511 C 172.224 102.296,172.167 97.727,172.167 88.852 C 172.167 75.357,172.140 74.674,171.538 73.000 C 171.106 71.800,169.520 70.000,168.893 70.000 C 168.842 70.000,168.564 69.894,168.275 69.765 C 165.907 68.704,159.233 69.210,155.167 70.759 C 154.846 70.881,154.415 71.028,154.208 71.085 C 153.747 71.213,153.703 72.001,154.084 73.284 C 154.301 74.013,154.329 76.095,154.293 88.440 L 154.250 102.750 150.917 102.791 C 148.996 102.815,147.477 102.764,147.333 102.672 C 147.115 102.533,147.073 100.698,147.000 88.381 C 146.910 73.069,146.972 74.129,146.055 72.417 C 144.409 69.346,137.178 68.356,130.375 70.271 L 129.500 70.517 129.500 86.353 C 129.500 96.950,129.443 102.295,129.327 102.511 C 129.037 103.055,122.215 103.005,122.082 102.458 C 122.033 102.252,122.012 94.031,122.038 84.188 L 122.083 66.293 122.917 65.855 C 123.660 65.464,124.204 65.235,126.333 64.415 C 126.654 64.291,127.367 64.066,127.917 63.913 C 128.467 63.761,129.254 63.538,129.667 63.418 C 130.079 63.297,130.754 63.148,131.167 63.086 C 131.579 63.023,132.179 62.901,132.500 62.814 C 133.993 62.410,138.947 62.237,141.454 62.501 M354.132 62.511 C 355.649 62.677,356.916 62.951,358.083 63.366 C 358.972 63.683,361.311 64.828,361.417 65.000 C 361.561 65.233,362.059 65.208,362.703 64.933 C 364.084 64.345,364.460 64.228,367.583 63.412 C 374.764 61.537,382.189 62.119,386.385 64.885 C 388.102 66.018,389.702 67.799,390.565 69.538 C 392.011 72.454,391.917 71.176,391.917 87.917 L 391.917 102.750 388.667 102.791 C 386.799 102.815,385.310 102.764,385.167 102.672 C 384.949 102.533,384.904 100.688,384.819 88.381 C 384.726 75.051,384.673 73.460,384.313 73.238 C 384.233 73.188,384.167 73.009,384.167 72.840 C 384.167 72.093,382.571 70.457,381.250 69.851 C 378.748 68.703,372.132 69.152,367.833 70.762 C 367.512 70.882,367.081 71.028,366.875 71.085 C 366.414 71.213,366.393 71.677,366.782 73.083 C 367.124 74.320,367.330 101.884,367.001 102.498 C 366.820 102.836,361.315 103.025,360.218 102.731 L 359.852 102.633 359.790 88.775 C 359.732 76.091,359.702 74.842,359.433 74.039 C 358.621 71.609,357.474 70.516,354.917 69.736 C 353.526 69.312,347.300 69.304,345.695 69.724 C 345.115 69.876,344.440 70.004,344.195 70.009 C 343.950 70.014,343.412 70.147,343.000 70.305 L 342.250 70.593 342.167 86.552 C 342.094 100.495,342.052 102.532,341.833 102.672 C 341.689 102.764,340.171 102.815,338.250 102.791 L 334.917 102.750 334.917 84.426 L 334.917 66.102 336.417 65.453 C 338.591 64.513,338.888 64.409,341.750 63.574 C 342.208 63.441,343.146 63.219,343.833 63.082 C 344.521 62.945,345.271 62.793,345.500 62.743 C 347.154 62.383,351.819 62.257,354.132 62.511 M206.167 62.910 C 208.104 63.368,209.638 63.971,211.248 64.906 C 214.541 66.821,216.738 70.149,217.745 74.750 C 218.182 76.743,218.118 91.913,217.666 93.544 C 217.164 95.355,215.966 97.629,214.885 98.825 C 210.471 103.702,198.750 104.860,191.284 101.155 C 186.544 98.803,183.810 93.071,184.930 87.833 C 185.432 85.485,186.133 84.199,187.838 82.500 C 189.177 81.165,189.630 80.837,191.250 80.028 C 195.626 77.843,201.683 77.076,208.528 77.839 C 210.417 78.050,210.549 77.993,210.456 77.018 C 209.864 70.830,205.989 68.403,197.675 69.014 C 194.590 69.241,193.198 69.496,190.303 70.366 C 188.782 70.824,188.833 70.919,188.836 67.615 C 188.839 64.267,188.765 64.455,190.253 64.003 C 194.544 62.700,195.911 62.520,201.083 62.574 C 204.062 62.605,205.195 62.680,206.167 62.910 M242.417 65.833 L 242.417 69.083 241.083 69.206 C 240.350 69.274,238.925 69.402,237.917 69.490 C 234.941 69.753,231.015 70.551,230.708 70.956 C 230.545 71.171,230.500 74.584,230.500 86.709 C 230.500 97.061,230.443 102.295,230.327 102.511 C 230.116 102.906,223.751 103.018,223.367 102.633 C 223.214 102.480,223.167 98.205,223.167 84.404 L 223.167 66.374 223.992 66.019 C 226.609 64.894,231.605 63.551,235.500 62.927 C 237.568 62.596,238.204 62.550,240.500 62.568 L 242.417 62.583 242.417 65.833 M284.967 63.200 C 285.314 63.548,285.250 102.226,284.901 102.575 C 284.673 102.803,284.174 102.834,281.360 102.795 L 278.083 102.750 278.040 83.083 C 278.017 72.267,278.033 63.323,278.077 63.208 C 278.188 62.917,284.675 62.909,284.967 63.200 M300.842 76.417 C 300.943 91.076,300.901 90.492,302.000 92.724 C 302.925 94.604,305.041 96.229,307.000 96.564 C 307.321 96.619,307.921 96.736,308.333 96.825 C 311.688 97.543,316.323 96.053,317.792 93.784 C 319.460 91.209,319.392 91.903,319.457 76.626 L 319.515 63.169 319.882 63.079 C 320.085 63.029,321.712 63.010,323.500 63.036 L 326.750 63.083 326.793 76.206 C 326.843 91.640,326.856 91.504,324.863 95.667 C 323.461 98.594,320.194 101.276,316.580 102.465 C 313.853 103.363,308.859 103.586,305.667 102.954 C 302.225 102.271,299.117 100.502,297.290 98.185 C 296.812 97.579,296.324 96.982,296.205 96.858 C 295.875 96.513,294.552 93.660,294.415 93.000 C 294.349 92.679,294.236 92.342,294.165 92.250 C 294.028 92.074,293.748 90.536,293.498 88.583 C 293.331 87.287,293.274 63.683,293.436 63.260 C 293.526 63.025,293.965 62.999,297.144 63.038 L 300.750 63.083 300.842 76.417 M201.083 83.683 C 197.573 84.107,194.777 85.263,193.286 86.905 C 191.812 88.529,191.716 91.335,193.062 93.466 C 195.642 97.553,206.437 97.883,209.400 93.965 C 210.453 92.574,211.260 85.586,210.526 84.216 C 210.226 83.655,204.151 83.313,201.083 83.683 " stroke="none" fill="#fbfbfb" fill-rule="evenodd"></path></g></svg>